<svg width="30" height="30" viewBox="0 0 30 30" fill="none" xmlns="http://www.w3.org/2000/svg">
<path d="M14.9881 4.24713C14.1959 4.24713 13.5408 4.90225 13.5408 5.69449C13.5408 6.48673 14.1959 7.14185 14.9881 7.14185C15.7804 7.14185 16.4355 6.48673 16.4355 5.69449C16.4355 4.90225 15.7956 4.24713 14.9881 4.24713Z" fill="black"/>
<path d="M14.9881 22.8495C14.1959 22.8495 13.5408 23.5046 13.5408 24.2968C13.5408 25.0891 14.1959 25.7442 14.9881 25.7442C15.7804 25.7442 16.4355 25.0891 16.4355 24.2968C16.4355 23.5046 15.7956 22.8495 14.9881 22.8495Z" fill="black"/>
<path d="M24.2967 13.556C23.5045 13.556 22.8494 14.2111 22.8494 15.0033C22.8494 15.7956 23.5045 16.4507 24.2967 16.4507C25.089 16.4507 25.7441 15.7956 25.7441 15.0033C25.7441 14.2111 25.1042 13.556 24.2967 13.556Z" fill="black"/>
<path d="M5.69443 13.556C4.90219 13.556 4.24707 14.2111 4.24707 15.0033C4.24707 15.7956 4.90219 16.4507 5.69443 16.4507C6.48667 16.4507 7.14179 15.7956 7.14179 15.0033C7.14179 14.2111 6.48667 13.556 5.69443 13.556Z" fill="black"/>
<path d="M20.549 9.44241C21.1127 10.0061 22.0268 10.0061 22.5905 9.44241C23.1543 8.8787 23.1543 7.96458 22.5905 7.40087C22.0268 6.83716 21.1127 6.83716 20.549 7.40087C19.9853 7.96458 19.9853 8.8787 20.549 9.44241Z" fill="black"/>
<path d="M9.44235 20.549C8.87864 19.9853 7.96452 19.9853 7.40081 20.549C6.8371 21.1127 6.8371 22.0268 7.40081 22.5905C7.96452 23.1542 8.87864 23.1542 9.44235 22.5905C10.0061 22.0268 10.0061 21.1127 9.44235 20.549Z" fill="black"/>
<path d="M20.549 20.549C19.9853 21.1127 19.9853 22.0268 20.549 22.5905C21.1127 23.1542 22.0268 23.1542 22.5905 22.5905C23.1543 22.0268 23.1543 21.1127 22.5905 20.549C22.0268 19.9853 21.1127 19.9853 20.549 20.549Z" fill="black"/>
<path d="M9.44235 9.44241C10.0061 8.8787 10.0061 7.96458 9.44235 7.40087C8.87864 6.83716 7.96452 6.83716 7.40081 7.40087C6.8371 7.96458 6.8371 8.8787 7.40081 9.44241C7.96452 10.0061 8.87864 10.0061 9.44235 9.44241Z" fill="black"/>
<path d="M19.7567 3.7596C20.1376 3.92719 20.5946 3.74437 20.7622 3.34825C20.9298 2.96736 20.747 2.5103 20.3509 2.34271C19.97 2.17512 19.5129 2.35795 19.3453 2.75407C19.1777 3.15019 19.3606 3.60725 19.7567 3.7596Z" fill="black"/>
<path d="M10.2803 26.2623C9.89943 26.0947 9.44237 26.2775 9.27478 26.6736C9.10719 27.0545 9.29002 27.5116 9.68613 27.6792C10.067 27.8467 10.5241 27.6639 10.6917 27.2678C10.844 26.8717 10.6612 26.4146 10.2803 26.2623Z" fill="black"/>
<path d="M27.222 19.3301C26.8411 19.1626 26.384 19.3454 26.2164 19.7415C26.0488 20.1224 26.2317 20.5794 26.6278 20.747C27.0087 20.9146 27.4657 20.7318 27.6333 20.3357C27.8009 19.9396 27.6181 19.4977 27.222 19.3301Z" fill="black"/>
<path d="M3.33305 9.25958C2.95216 9.09199 2.4951 9.27482 2.32751 9.67094C2.15993 10.0518 2.34275 10.5089 2.73887 10.6765C3.11975 10.8441 3.57681 10.6612 3.7444 10.2651C3.89676 9.869 3.71393 9.42717 3.33305 9.25958Z" fill="black"/>
<path d="M26.7193 9.44241C26.3232 9.59476 26.1404 10.0518 26.308 10.4327C26.4603 10.8288 26.9174 11.0117 27.2983 10.8441C27.6944 10.6917 27.8772 10.2346 27.7096 9.85376C27.5573 9.47288 27.1002 9.27482 26.7193 9.44241Z" fill="black"/>
<path d="M2.69297 19.2235C2.29685 19.3759 2.11403 19.8329 2.28162 20.2138C2.43397 20.6099 2.89103 20.7928 3.27191 20.6252C3.66803 20.4728 3.85086 20.0158 3.68327 19.6349C3.53092 19.2387 3.08909 19.0559 2.69297 19.2235Z" fill="black"/>
<path d="M19.5892 26.2927C19.1931 26.4451 19.0103 26.9022 19.1779 27.283C19.3302 27.6792 19.7873 27.862 20.1682 27.6944C20.5643 27.542 20.7471 27.085 20.5795 26.7041C20.4119 26.3232 19.9701 26.1404 19.5892 26.2927Z" fill="black"/>
<path d="M9.80821 2.28176C9.41209 2.43411 9.22926 2.89117 9.39685 3.27206C9.5492 3.66818 10.0063 3.851 10.3871 3.68341C10.7833 3.53106 10.9661 3.074 10.7985 2.69312C10.6462 2.31223 10.1891 2.12941 9.80821 2.28176Z" fill="black"/>
<path d="M21.28 12.459C21.2039 12.261 20.9753 12.1696 20.7925 12.2457C20.5945 12.3219 20.503 12.5504 20.5792 12.7333C20.6554 12.9313 20.8839 13.0227 21.0668 12.9466C21.2648 12.8704 21.3562 12.6571 21.28 12.459Z" fill="black"/>
<path d="M8.9246 17.0753C8.72654 17.1515 8.63513 17.38 8.7113 17.5628C8.78748 17.7609 9.01601 17.8523 9.19884 17.7761C9.3969 17.7 9.48831 17.4714 9.41213 17.2886C9.33595 17.0906 9.10742 16.9991 8.9246 17.0753Z" fill="black"/>
<path d="M17.2581 20.5795C17.06 20.6556 16.9686 20.8842 17.0448 21.067C17.121 21.2651 17.3495 21.3565 17.5323 21.2803C17.7304 21.2041 17.8218 20.9756 17.7456 20.7928C17.6695 20.5947 17.4562 20.5033 17.2581 20.5795Z" fill="black"/>
<path d="M12.4285 8.71112C12.2304 8.7873 12.139 9.01583 12.2152 9.19865C12.2914 9.39671 12.5199 9.48812 12.7027 9.41195C12.9008 9.33577 12.9922 9.10724 12.916 8.92442C12.8399 8.72636 12.6266 8.63494 12.4285 8.71112Z" fill="black"/>
<path d="M21.0364 17.1515C20.8384 17.0753 20.6251 17.1667 20.5489 17.3495C20.4727 17.5476 20.5641 17.7609 20.747 17.837C20.945 17.9132 21.1583 17.8218 21.2345 17.639C21.3107 17.4562 21.2193 17.2429 21.0364 17.1515Z" fill="black"/>
<path d="M9.22907 12.1848C9.03101 12.1086 8.81772 12.2 8.74154 12.3828C8.66536 12.5809 8.75678 12.7942 8.9396 12.8704C9.13766 12.9465 9.35096 12.8551 9.42713 12.6723C9.50331 12.4742 9.4119 12.261 9.22907 12.1848Z" fill="black"/>
<path d="M12.6417 20.549C12.4436 20.4728 12.2303 20.5642 12.1541 20.747C12.078 20.9451 12.1694 21.1584 12.3522 21.2346C12.5503 21.3107 12.7636 21.2193 12.8397 21.0365C12.9311 20.8537 12.8397 20.6404 12.6417 20.549Z" fill="black"/>
<path d="M17.6236 8.7416C17.4255 8.66542 17.2122 8.75684 17.1361 8.93966C17.0599 9.13772 17.1513 9.35102 17.3341 9.42719C17.5322 9.50337 17.7455 9.41196 17.8217 9.22913C17.8978 9.04631 17.8064 8.83301 17.6236 8.7416Z" fill="black"/>
<path d="M14.8511 0.712532C15.0491 0.788709 15.2624 0.697297 15.3386 0.514472C15.4148 0.316413 15.3234 0.103118 15.1405 0.0269411C14.9425 -0.0492357 14.7292 0.0421763 14.653 0.225001C14.5616 0.407825 14.653 0.636356 14.8511 0.712532Z" fill="black"/>
<path d="M15.1404 29.2788C14.9424 29.2027 14.7291 29.2941 14.6529 29.4769C14.5767 29.675 14.6682 29.8882 14.851 29.9644C15.049 30.0406 15.2623 29.9492 15.3385 29.7664C15.4299 29.5835 15.3385 29.355 15.1404 29.2788Z" fill="black"/>
<path d="M29.7664 14.6529C29.5684 14.5767 29.3551 14.6682 29.2789 14.851C29.2027 15.049 29.2941 15.2623 29.477 15.3385C29.675 15.4147 29.8883 15.3233 29.9645 15.1405C30.0559 14.9576 29.9645 14.7291 29.7664 14.6529Z" fill="black"/>
<path d="M0.514473 14.6529C0.316413 14.5767 0.103118 14.6682 0.0269411 14.851C-0.0492357 15.049 0.0421763 15.2623 0.225001 15.3385C0.42306 15.4147 0.636356 15.3233 0.712532 15.1405C0.788709 14.9576 0.697297 14.7291 0.514473 14.6529Z" fill="black"/>
<path d="M25.485 4.99367C25.683 4.9175 25.7744 4.68897 25.6983 4.50614C25.6221 4.30808 25.3936 4.21667 25.2107 4.29285C25.0127 4.36902 24.9213 4.59755 24.9974 4.78038C25.0736 4.99367 25.2869 5.08509 25.485 4.99367Z" fill="black"/>
<path d="M4.50614 24.9977C4.30808 25.0739 4.21667 25.3024 4.29285 25.4852C4.36902 25.668 4.59755 25.7747 4.78038 25.6985C4.97844 25.6223 5.06985 25.3938 4.99367 25.211C4.9175 25.0129 4.7042 24.9215 4.50614 24.9977Z" fill="black"/>
<path d="M25.1956 24.9977C24.9975 25.0739 24.9061 25.3024 24.9823 25.4852C25.0585 25.6833 25.287 25.7747 25.4698 25.6985C25.6679 25.6223 25.7593 25.3938 25.6831 25.211C25.607 25.0129 25.3937 24.9215 25.1956 24.9977Z" fill="black"/>
<path d="M4.79576 4.99367C4.99382 4.9175 5.08523 4.68897 5.00905 4.50614C4.93288 4.30808 4.70435 4.21667 4.52152 4.29285C4.32346 4.36902 4.23205 4.59755 4.30823 4.78038C4.3844 4.99367 4.5977 5.08509 4.79576 4.99367Z" fill="black"/>
</svg>
