<svg width="1511" height="982" viewBox="0 0 1511 982" fill="none" xmlns="http://www.w3.org/2000/svg">
<g clip-path="url(#clip0_25_1550)">
<g filter="url(#filter0_f_25_1550)">
<path d="M1512.92 -1187.85C14.2366 -625.104 -2083.92 573.943 1512.92 868.121V-1187.85Z" fill="#1E1840" fill-opacity="0.3"/>
</g>
<g filter="url(#filter1_f_25_1550)">
<path d="M1928.28 -1043.44C429.598 -480.694 -1668.56 432.51 1928.28 726.689V-1043.44Z" fill="#1C173B" fill-opacity="0.3"/>
</g>
<g filter="url(#filter2_f_25_1550)">
<path d="M2324.29 -933.276C825.608 -441.047 -1272.55 357.719 2324.29 615.033V-933.276Z" fill="#1E1840" fill-opacity="0.3"/>
</g>
<g filter="url(#filter3_f_25_1550)">
<path d="M2008.68 -683.164C1049.25 -325.351 -293.952 255.291 2008.68 442.338V-683.164Z" fill="#1B1733" fill-opacity="0.3"/>
</g>
<g filter="url(#filter4_f_25_1550)">
<ellipse cx="2.10816" cy="2.28093" rx="2.10816" ry="2.28093" transform="matrix(1 0 0 -1 586.3 360.36)" fill="#986CFF"/>
</g>
<g filter="url(#filter5_f_25_1550)">
<ellipse cx="2.10816" cy="2.28093" rx="2.10816" ry="2.28093" transform="matrix(1 0 0 -1 1472.78 922.609)" fill="#986CFF"/>
</g>
<g filter="url(#filter6_f_25_1550)">
<ellipse cx="2.10816" cy="2.28093" rx="2.10816" ry="2.28093" transform="matrix(1 0 0 -1 123.559 417.385)" fill="#986CFF"/>
</g>
<g filter="url(#filter7_f_25_1550)">
<ellipse cx="2.10816" cy="2.28093" rx="2.10816" ry="2.28093" transform="matrix(1 0 0 -1 785.521 872.428)" fill="#986CFF"/>
</g>
<g filter="url(#filter8_f_25_1550)">
<ellipse cx="2.10816" cy="2.28093" rx="2.10816" ry="2.28093" transform="matrix(1 0 0 -1 1047.99 270.264)" fill="#986CFF"/>
</g>
<g filter="url(#filter9_f_25_1550)">
<ellipse cx="2.10816" cy="2.28093" rx="2.10816" ry="2.28093" transform="matrix(1 0 0 -1 391.295 141.39)" fill="#986CFF"/>
</g>
<g filter="url(#filter10_f_25_1550)">
<ellipse cx="2.10816" cy="2.28093" rx="2.10816" ry="2.28093" transform="matrix(1 0 0 -1 571.542 765.225)" fill="#986CFF" fill-opacity="0.8"/>
</g>
<g filter="url(#filter11_f_25_1550)">
<ellipse cx="2.10816" cy="2.28093" rx="2.10816" ry="2.28093" transform="matrix(1 0 0 -1 996.437 574.222)" fill="#986CFF"/>
</g>
<g filter="url(#filter12_f_25_1550)">
<ellipse cx="2.10816" cy="2.28093" rx="2.10816" ry="2.28093" transform="matrix(1 0 0 -1 662.193 639.775)" fill="#986CFF"/>
</g>
<g filter="url(#filter13_f_25_1550)">
<ellipse cx="651.126" cy="315.313" rx="1.58112" ry="1.7107" transform="rotate(180 651.126 315.313)" fill="#D5D4DA"/>
</g>
<g filter="url(#filter14_f_25_1550)">
<ellipse cx="135.681" cy="863.874" rx="1.58112" ry="1.7107" transform="rotate(180 135.681 863.874)" fill="#D5D4DA"/>
</g>
<g filter="url(#filter15_f_25_1550)">
<ellipse cx="1282.67" cy="738.314" rx="18.4464" ry="19.9581" transform="rotate(180 1282.67 738.314)" fill="#564D88" fill-opacity="0.8"/>
</g>
<g filter="url(#filter16_f_25_1550)">
<ellipse cx="254.69" cy="379.22" rx="35.2736" ry="38.1643" transform="rotate(180 254.69 379.22)" fill="#7369B1" fill-opacity="0.4"/>
</g>
<g filter="url(#filter17_f_25_1550)">
<ellipse cx="174.211" cy="219.07" rx="23.0544" ry="24.9438" transform="rotate(180 174.211 219.07)" fill="#7369B1" fill-opacity="0.15"/>
</g>
<g filter="url(#filter18_f_25_1550)">
<path d="M608.322 677.14C569.011 560.753 439.896 504.424 311.706 554.544C247.254 579.743 209.729 609.859 175.138 668.75C205.967 675.884 617.158 762.563 617.158 762.563C617.158 762.563 629.257 739.122 608.322 677.14Z" fill="url(#paint0_linear_25_1550)" fill-opacity="0.2"/>
</g>
<g filter="url(#filter19_f_25_1550)">
<path d="M1444.03 503.782C1418.75 428.947 1335.73 392.728 1253.31 424.955C1211.87 441.157 1187.74 460.521 1165.5 498.387C1185.32 502.974 1449.71 558.707 1449.71 558.707C1449.71 558.707 1457.49 543.635 1444.03 503.782Z" fill="url(#paint1_linear_25_1550)" fill-opacity="0.2"/>
</g>
<g filter="url(#filter20_f_25_1550)">
<ellipse cx="649.018" cy="245.745" rx="3.68928" ry="3.99163" transform="rotate(180 649.018 245.745)" fill="#D5D4DA"/>
</g>
<g filter="url(#filter21_f_25_1550)">
<ellipse cx="443.471" cy="414.534" rx="2.6352" ry="2.85116" transform="rotate(180 443.471 414.534)" fill="#D5D4DA"/>
</g>
<g filter="url(#filter22_f_25_1550)">
<ellipse cx="319.091" cy="711.053" rx="3.68928" ry="3.99163" transform="rotate(180 319.091 711.053)" fill="#D5D4DA" fill-opacity="0.8"/>
</g>
<g filter="url(#filter23_f_25_1550)">
<rect width="1.61765" height="1.70352" rx="0.364974" transform="matrix(-0.897323 0.441374 -0.387379 -0.921921 420.81 591.583)" fill="white"/>
</g>
<g filter="url(#filter24_f_25_1550)">
<rect width="3.24499" height="3.41725" rx="0.732133" transform="matrix(-0.897323 0.441374 -0.387379 -0.921921 735.979 247.164)" fill="white"/>
</g>
<g filter="url(#filter25_f_25_1550)">
<rect width="3.24499" height="3.41725" rx="0.732133" transform="matrix(-0.897323 0.441374 -0.387379 -0.921921 169.938 60.1274)" fill="white"/>
</g>
<g filter="url(#filter26_f_25_1550)">
<rect width="3.24499" height="3.41725" rx="0.732133" transform="matrix(-0.897323 0.441374 -0.387379 -0.921921 1130.21 804.85)" fill="white"/>
</g>
<g filter="url(#filter27_f_25_1550)">
<rect width="2.85294" height="2.92838" rx="0.663598" transform="matrix(-0.793768 -0.608221 0.547669 -0.836695 620.278 539.946)" fill="#D5D4DA"/>
</g>
<g filter="url(#filter28_f_25_1550)">
<rect width="3.37453" height="3.50606" rx="0.852363" transform="matrix(-0.843741 -0.53675 0.477483 -0.878641 541.481 274.906)" fill="#D5D4DA"/>
</g>
<g filter="url(#filter29_f_25_1550)">
<rect width="3.35084" height="3.52871" rx="0.852363" transform="matrix(-0.897323 0.441374 -0.387379 -0.921921 199.452 149.036)" fill="#D5D4DA"/>
</g>
<g filter="url(#filter30_f_25_1550)">
<rect width="3.35084" height="3.52871" rx="0.852363" transform="matrix(-0.897323 0.441374 -0.387379 -0.921921 167.831 642.857)" fill="#D5D4DA"/>
</g>
<g filter="url(#filter31_f_25_1550)">
<path d="M1468.37 112.959C1468.08 112.461 1468.39 111.836 1468.93 111.813L1470.36 111.753C1470.92 111.73 1471.32 112.364 1471.06 112.885L1470.4 114.257C1470.14 114.778 1469.44 114.786 1469.14 114.271L1468.37 112.959Z" fill="white"/>
</g>
<g filter="url(#filter32_f_25_1550)">
<path d="M137.104 916.06C136.6 916.306 136.026 915.859 136.081 915.263L136.224 913.718C136.278 913.134 136.9 912.843 137.35 913.193L138.515 914.099C138.964 914.449 138.908 915.18 138.413 915.421L137.104 916.06Z" fill="white"/>
</g>
<g filter="url(#filter33_f_25_1550)">
<path d="M194.024 559.094C193.52 559.34 192.945 558.893 193.001 558.298L193.144 556.752C193.198 556.168 193.82 555.877 194.269 556.227L195.435 557.133C195.884 557.483 195.828 558.214 195.333 558.455L194.024 559.094Z" fill="white"/>
</g>
<g filter="url(#filter34_f_25_1550)">
<path d="M570.595 439.646C570.435 439.324 570.484 438.941 570.718 438.677L572.098 437.121C572.36 436.826 572.79 436.751 573.144 436.936L574.863 437.837C575.194 438.01 575.385 438.373 575.338 438.741L575.059 440.933C575.012 441.302 574.739 441.596 574.376 441.666L572.497 442.031C572.109 442.106 571.714 441.907 571.536 441.547L570.595 439.646Z" fill="white"/>
</g>
<g filter="url(#filter35_f_25_1550)">
<path d="M246.353 866.147C245.981 866.149 245.645 865.888 245.529 865.506L244.912 863.487C244.8 863.118 244.915 862.718 245.201 862.492L246.807 861.216C247.099 860.984 247.502 860.985 247.803 861.219L249.385 862.45C249.686 862.684 249.815 863.097 249.705 863.47L249.098 865.524C248.991 865.889 248.678 866.135 248.319 866.137L246.353 866.147Z" fill="white"/>
</g>
<g filter="url(#filter36_f_25_1550)">
<path d="M321.301 451.051C321.192 450.914 321.178 450.724 321.264 450.569L321.777 449.654C321.875 449.481 322.076 449.394 322.266 449.442L323.188 449.677C323.365 449.722 323.494 449.875 323.508 450.059L323.592 451.154C323.606 451.337 323.503 451.511 323.334 451.588L322.461 451.984C322.281 452.066 322.069 452.016 321.947 451.862L321.301 451.051Z" fill="white"/>
</g>
<g filter="url(#filter37_f_25_1550)">
<path d="M441.358 740.696C440.986 740.698 440.65 740.437 440.534 740.055L439.917 738.035C439.804 737.667 439.92 737.267 440.206 737.04L441.812 735.764C442.104 735.532 442.507 735.534 442.808 735.768L444.39 736.999C444.691 737.233 444.82 737.645 444.71 738.019L444.103 740.073C443.996 740.438 443.682 740.684 443.323 740.686L441.358 740.696Z" fill="white" fill-opacity="0.8"/>
</g>
<g filter="url(#filter38_f_25_1550)">
<path d="M271.039 358.783C270.907 358.562 270.922 358.284 271.076 358.08L271.988 356.872C272.161 356.644 272.467 356.562 272.733 356.674L274.018 357.215C274.266 357.319 274.422 357.568 274.408 357.836L274.324 359.434C274.31 359.702 274.128 359.93 273.871 360.003L272.538 360.383C272.262 360.462 271.966 360.343 271.819 360.095L271.039 358.783Z" fill="white"/>
</g>
<g filter="url(#filter39_f_25_1550)">
<path d="M253.732 243.455C253.36 243.457 253.024 243.196 252.908 242.813L252.291 240.794C252.178 240.425 252.294 240.026 252.58 239.799L254.186 238.523C254.478 238.291 254.881 238.293 255.182 238.527L256.764 239.757C257.065 239.992 257.194 240.404 257.084 240.778L256.477 242.832C256.37 243.197 256.057 243.443 255.697 243.444L253.732 243.455Z" fill="white"/>
</g>
<g filter="url(#filter40_f_25_1550)">
<path d="M501.441 127.127C501.069 127.129 500.733 126.868 500.617 126.486L500 124.467C499.887 124.098 500.003 123.698 500.289 123.472L501.895 122.196C502.187 121.964 502.59 121.965 502.891 122.199L504.473 123.43C504.774 123.664 504.903 124.077 504.793 124.45L504.186 126.504C504.079 126.869 503.765 127.115 503.406 127.117L501.441 127.127Z" fill="white"/>
</g>
<g filter="url(#filter41_f_25_1550)">
<path d="M751.777 447.185C751.486 447.186 751.225 446.983 751.134 446.685L750.653 445.11C750.565 444.822 750.655 444.511 750.878 444.334L752.131 443.339C752.359 443.158 752.673 443.159 752.907 443.342L754.141 444.301C754.376 444.484 754.477 444.806 754.391 445.097L753.918 446.699C753.833 446.983 753.589 447.175 753.309 447.177L751.777 447.185Z" fill="#D5D4DA"/>
</g>
<g filter="url(#filter42_f_25_1550)">
<path d="M727.93 353.922C727.574 354.096 727.17 353.781 727.209 353.361L727.44 350.865C727.478 350.453 727.916 350.248 728.233 350.494L730.116 351.959C730.432 352.206 730.392 352.72 730.044 352.89L727.93 353.922Z" fill="#D5D4DA"/>
</g>
<g filter="url(#filter43_f_25_1550)">
<path d="M533.874 359.938C899.955 423.332 1225.82 512.563 1456.73 605.561C1572.2 652.064 1663.84 699.479 1724.89 745.031C1755.42 767.809 1778.23 790.071 1792.56 811.459C1806.88 832.839 1812.65 853.237 1809.33 872.383C1806.02 891.528 1793.72 908.798 1773.05 924.119C1752.36 939.445 1723.4 952.741 1686.99 963.927C1614.18 986.298 1511.92 1000.14 1387.54 1005.11C1138.81 1015.04 801.912 989.506 435.831 926.112C69.7492 862.719 -256.117 773.488 -487.027 680.49C-602.493 633.986 -694.139 586.571 -755.191 541.019C-785.719 518.242 -808.528 495.98 -822.853 474.592C-837.172 453.211 -842.944 432.812 -839.629 413.667C-836.313 394.522 -824.018 377.252 -803.343 361.931C-782.661 346.605 -753.694 333.31 -717.285 322.124C-644.471 299.753 -542.218 285.915 -417.838 280.945C-169.104 271.006 167.793 296.545 533.874 359.938Z" stroke="#5C449D" stroke-width="3"/>
</g>
<g filter="url(#filter44_f_25_1550)">
<path d="M888.504 522.567C1152.95 558.963 1389.54 612.321 1558.27 669.162C1642.64 697.584 1710.02 726.869 1755.43 755.326C1778.14 769.555 1795.33 783.563 1806.4 797.13C1817.48 810.698 1822.4 823.776 1820.7 836.176C1818.99 848.576 1810.72 859.837 1796.39 869.909C1782.06 879.98 1761.72 888.823 1736.02 896.389C1684.61 911.52 1611.82 921.513 1522.91 926.086C1345.09 935.231 1102.89 922.692 838.443 886.296C573.998 849.9 337.41 796.542 168.677 739.7C84.3068 711.278 16.9258 681.994 -28.4861 653.537C-51.1935 639.307 -68.3823 625.3 -79.4576 611.733C-90.5333 598.164 -95.4554 585.087 -93.7488 572.687C-92.0421 560.287 -83.7702 549.025 -69.4409 538.954C-55.1121 528.883 -34.7785 520.04 -9.07136 512.474C42.3397 497.343 115.127 487.35 204.038 482.777C381.853 473.632 624.059 486.171 888.504 522.567Z" stroke="#81769E"/>
</g>
</g>
<defs>
<filter id="filter0_f_25_1550" x="-523.082" y="-1237.85" width="2086" height="2155.98" filterUnits="userSpaceOnUse" color-interpolation-filters="sRGB">
<feFlood flood-opacity="0" result="BackgroundImageFix"/>
<feBlend mode="normal" in="SourceGraphic" in2="BackgroundImageFix" result="shape"/>
<feGaussianBlur stdDeviation="25" result="effect1_foregroundBlur_25_1550"/>
</filter>
<filter id="filter1_f_25_1550" x="-107.721" y="-1093.44" width="2086" height="1870.13" filterUnits="userSpaceOnUse" color-interpolation-filters="sRGB">
<feFlood flood-opacity="0" result="BackgroundImageFix"/>
<feBlend mode="normal" in="SourceGraphic" in2="BackgroundImageFix" result="shape"/>
<feGaussianBlur stdDeviation="25" result="effect1_foregroundBlur_25_1550"/>
</filter>
<filter id="filter2_f_25_1550" x="288.289" y="-983.276" width="2086" height="1648.31" filterUnits="userSpaceOnUse" color-interpolation-filters="sRGB">
<feFlood flood-opacity="0" result="BackgroundImageFix"/>
<feBlend mode="normal" in="SourceGraphic" in2="BackgroundImageFix" result="shape"/>
<feGaussianBlur stdDeviation="25" result="effect1_foregroundBlur_25_1550"/>
</filter>
<filter id="filter3_f_25_1550" x="687.276" y="-733.164" width="1371.4" height="1225.5" filterUnits="userSpaceOnUse" color-interpolation-filters="sRGB">
<feFlood flood-opacity="0" result="BackgroundImageFix"/>
<feBlend mode="normal" in="SourceGraphic" in2="BackgroundImageFix" result="shape"/>
<feGaussianBlur stdDeviation="25" result="effect1_foregroundBlur_25_1550"/>
</filter>
<filter id="filter4_f_25_1550" x="577" y="346.498" width="22.8163" height="23.1619" filterUnits="userSpaceOnUse" color-interpolation-filters="sRGB">
<feFlood flood-opacity="0" result="BackgroundImageFix"/>
<feBlend mode="normal" in="SourceGraphic" in2="BackgroundImageFix" result="shape"/>
<feGaussianBlur stdDeviation="4.65" result="effect1_foregroundBlur_25_1550"/>
</filter>
<filter id="filter5_f_25_1550" x="1463.48" y="908.748" width="22.8163" height="23.1618" filterUnits="userSpaceOnUse" color-interpolation-filters="sRGB">
<feFlood flood-opacity="0" result="BackgroundImageFix"/>
<feBlend mode="normal" in="SourceGraphic" in2="BackgroundImageFix" result="shape"/>
<feGaussianBlur stdDeviation="4.65" result="effect1_foregroundBlur_25_1550"/>
</filter>
<filter id="filter6_f_25_1550" x="114.259" y="403.523" width="22.8163" height="23.1619" filterUnits="userSpaceOnUse" color-interpolation-filters="sRGB">
<feFlood flood-opacity="0" result="BackgroundImageFix"/>
<feBlend mode="normal" in="SourceGraphic" in2="BackgroundImageFix" result="shape"/>
<feGaussianBlur stdDeviation="4.65" result="effect1_foregroundBlur_25_1550"/>
</filter>
<filter id="filter7_f_25_1550" x="776.221" y="858.566" width="22.8163" height="23.1618" filterUnits="userSpaceOnUse" color-interpolation-filters="sRGB">
<feFlood flood-opacity="0" result="BackgroundImageFix"/>
<feBlend mode="normal" in="SourceGraphic" in2="BackgroundImageFix" result="shape"/>
<feGaussianBlur stdDeviation="4.65" result="effect1_foregroundBlur_25_1550"/>
</filter>
<filter id="filter8_f_25_1550" x="1038.69" y="256.402" width="22.8163" height="23.1619" filterUnits="userSpaceOnUse" color-interpolation-filters="sRGB">
<feFlood flood-opacity="0" result="BackgroundImageFix"/>
<feBlend mode="normal" in="SourceGraphic" in2="BackgroundImageFix" result="shape"/>
<feGaussianBlur stdDeviation="4.65" result="effect1_foregroundBlur_25_1550"/>
</filter>
<filter id="filter9_f_25_1550" x="381.995" y="127.528" width="22.8163" height="23.1619" filterUnits="userSpaceOnUse" color-interpolation-filters="sRGB">
<feFlood flood-opacity="0" result="BackgroundImageFix"/>
<feBlend mode="normal" in="SourceGraphic" in2="BackgroundImageFix" result="shape"/>
<feGaussianBlur stdDeviation="4.65" result="effect1_foregroundBlur_25_1550"/>
</filter>
<filter id="filter10_f_25_1550" x="562.242" y="751.363" width="22.8163" height="23.1618" filterUnits="userSpaceOnUse" color-interpolation-filters="sRGB">
<feFlood flood-opacity="0" result="BackgroundImageFix"/>
<feBlend mode="normal" in="SourceGraphic" in2="BackgroundImageFix" result="shape"/>
<feGaussianBlur stdDeviation="4.65" result="effect1_foregroundBlur_25_1550"/>
</filter>
<filter id="filter11_f_25_1550" x="987.137" y="560.36" width="22.8163" height="23.1619" filterUnits="userSpaceOnUse" color-interpolation-filters="sRGB">
<feFlood flood-opacity="0" result="BackgroundImageFix"/>
<feBlend mode="normal" in="SourceGraphic" in2="BackgroundImageFix" result="shape"/>
<feGaussianBlur stdDeviation="4.65" result="effect1_foregroundBlur_25_1550"/>
</filter>
<filter id="filter12_f_25_1550" x="652.893" y="625.914" width="22.8163" height="23.1618" filterUnits="userSpaceOnUse" color-interpolation-filters="sRGB">
<feFlood flood-opacity="0" result="BackgroundImageFix"/>
<feBlend mode="normal" in="SourceGraphic" in2="BackgroundImageFix" result="shape"/>
<feGaussianBlur stdDeviation="4.65" result="effect1_foregroundBlur_25_1550"/>
</filter>
<filter id="filter13_f_25_1550" x="640.245" y="304.302" width="21.7621" height="22.0214" filterUnits="userSpaceOnUse" color-interpolation-filters="sRGB">
<feFlood flood-opacity="0" result="BackgroundImageFix"/>
<feBlend mode="normal" in="SourceGraphic" in2="BackgroundImageFix" result="shape"/>
<feGaussianBlur stdDeviation="4.65" result="effect1_foregroundBlur_25_1550"/>
</filter>
<filter id="filter14_f_25_1550" x="124.8" y="852.864" width="21.7621" height="22.0214" filterUnits="userSpaceOnUse" color-interpolation-filters="sRGB">
<feFlood flood-opacity="0" result="BackgroundImageFix"/>
<feBlend mode="normal" in="SourceGraphic" in2="BackgroundImageFix" result="shape"/>
<feGaussianBlur stdDeviation="4.65" result="effect1_foregroundBlur_25_1550"/>
</filter>
<filter id="filter15_f_25_1550" x="1231.32" y="685.45" width="102.705" height="105.728" filterUnits="userSpaceOnUse" color-interpolation-filters="sRGB">
<feFlood flood-opacity="0" result="BackgroundImageFix"/>
<feBlend mode="normal" in="SourceGraphic" in2="BackgroundImageFix" result="shape"/>
<feGaussianBlur stdDeviation="16.453" result="effect1_foregroundBlur_25_1550"/>
</filter>
<filter id="filter16_f_25_1550" x="186.51" y="308.15" width="136.359" height="142.141" filterUnits="userSpaceOnUse" color-interpolation-filters="sRGB">
<feFlood flood-opacity="0" result="BackgroundImageFix"/>
<feBlend mode="normal" in="SourceGraphic" in2="BackgroundImageFix" result="shape"/>
<feGaussianBlur stdDeviation="16.453" result="effect1_foregroundBlur_25_1550"/>
</filter>
<filter id="filter17_f_25_1550" x="118.25" y="161.22" width="111.921" height="115.7" filterUnits="userSpaceOnUse" color-interpolation-filters="sRGB">
<feFlood flood-opacity="0" result="BackgroundImageFix"/>
<feBlend mode="normal" in="SourceGraphic" in2="BackgroundImageFix" result="shape"/>
<feGaussianBlur stdDeviation="16.453" result="effect1_foregroundBlur_25_1550"/>
</filter>
<filter id="filter18_f_25_1550" x="149.812" y="510.862" width="496.15" height="277.027" filterUnits="userSpaceOnUse" color-interpolation-filters="sRGB">
<feFlood flood-opacity="0" result="BackgroundImageFix"/>
<feBlend mode="normal" in="SourceGraphic" in2="BackgroundImageFix" result="shape"/>
<feGaussianBlur stdDeviation="12.663" result="effect1_foregroundBlur_25_1550"/>
</filter>
<filter id="filter19_f_25_1550" x="1140.17" y="387.826" width="337.099" height="196.207" filterUnits="userSpaceOnUse" color-interpolation-filters="sRGB">
<feFlood flood-opacity="0" result="BackgroundImageFix"/>
<feBlend mode="normal" in="SourceGraphic" in2="BackgroundImageFix" result="shape"/>
<feGaussianBlur stdDeviation="12.663" result="effect1_foregroundBlur_25_1550"/>
</filter>
<filter id="filter20_f_25_1550" x="627.529" y="223.953" width="42.9784" height="43.5833" filterUnits="userSpaceOnUse" color-interpolation-filters="sRGB">
<feFlood flood-opacity="0" result="BackgroundImageFix"/>
<feBlend mode="normal" in="SourceGraphic" in2="BackgroundImageFix" result="shape"/>
<feGaussianBlur stdDeviation="8.9" result="effect1_foregroundBlur_25_1550"/>
</filter>
<filter id="filter21_f_25_1550" x="423.036" y="393.882" width="40.8705" height="41.3023" filterUnits="userSpaceOnUse" color-interpolation-filters="sRGB">
<feFlood flood-opacity="0" result="BackgroundImageFix"/>
<feBlend mode="normal" in="SourceGraphic" in2="BackgroundImageFix" result="shape"/>
<feGaussianBlur stdDeviation="8.9" result="effect1_foregroundBlur_25_1550"/>
</filter>
<filter id="filter22_f_25_1550" x="297.602" y="689.261" width="42.9784" height="43.5832" filterUnits="userSpaceOnUse" color-interpolation-filters="sRGB">
<feFlood flood-opacity="0" result="BackgroundImageFix"/>
<feBlend mode="normal" in="SourceGraphic" in2="BackgroundImageFix" result="shape"/>
<feGaussianBlur stdDeviation="8.9" result="effect1_foregroundBlur_25_1550"/>
</filter>
<filter id="filter23_f_25_1550" x="401.01" y="572.337" width="37.4872" height="37.6356" filterUnits="userSpaceOnUse" color-interpolation-filters="sRGB">
<feFlood flood-opacity="0" result="BackgroundImageFix"/>
<feBlend mode="normal" in="SourceGraphic" in2="BackgroundImageFix" result="shape"/>
<feGaussianBlur stdDeviation="8.9" result="effect1_foregroundBlur_25_1550"/>
</filter>
<filter id="filter24_f_25_1550" x="714.169" y="226.463" width="39.3861" height="39.6835" filterUnits="userSpaceOnUse" color-interpolation-filters="sRGB">
<feFlood flood-opacity="0" result="BackgroundImageFix"/>
<feBlend mode="normal" in="SourceGraphic" in2="BackgroundImageFix" result="shape"/>
<feGaussianBlur stdDeviation="8.9" result="effect1_foregroundBlur_25_1550"/>
</filter>
<filter id="filter25_f_25_1550" x="148.127" y="39.4266" width="39.3861" height="39.6835" filterUnits="userSpaceOnUse" color-interpolation-filters="sRGB">
<feFlood flood-opacity="0" result="BackgroundImageFix"/>
<feBlend mode="normal" in="SourceGraphic" in2="BackgroundImageFix" result="shape"/>
<feGaussianBlur stdDeviation="8.9" result="effect1_foregroundBlur_25_1550"/>
</filter>
<filter id="filter26_f_25_1550" x="1108.39" y="784.149" width="39.3861" height="39.6835" filterUnits="userSpaceOnUse" color-interpolation-filters="sRGB">
<feFlood flood-opacity="0" result="BackgroundImageFix"/>
<feBlend mode="normal" in="SourceGraphic" in2="BackgroundImageFix" result="shape"/>
<feGaussianBlur stdDeviation="8.9" result="effect1_foregroundBlur_25_1550"/>
</filter>
<filter id="filter27_f_25_1550" x="600.464" y="518.233" width="38.9682" height="39.2406" filterUnits="userSpaceOnUse" color-interpolation-filters="sRGB">
<feFlood flood-opacity="0" result="BackgroundImageFix"/>
<feBlend mode="normal" in="SourceGraphic" in2="BackgroundImageFix" result="shape"/>
<feGaussianBlur stdDeviation="8.9" result="effect1_foregroundBlur_25_1550"/>
</filter>
<filter id="filter28_f_25_1550" x="521.134" y="252.543" width="39.5219" height="39.8344" filterUnits="userSpaceOnUse" color-interpolation-filters="sRGB">
<feFlood flood-opacity="0" result="BackgroundImageFix"/>
<feBlend mode="normal" in="SourceGraphic" in2="BackgroundImageFix" result="shape"/>
<feGaussianBlur stdDeviation="8.9" result="effect1_foregroundBlur_25_1550"/>
</filter>
<filter id="filter29_f_25_1550" x="177.54" y="128.273" width="39.4501" height="39.751" filterUnits="userSpaceOnUse" color-interpolation-filters="sRGB">
<feFlood flood-opacity="0" result="BackgroundImageFix"/>
<feBlend mode="normal" in="SourceGraphic" in2="BackgroundImageFix" result="shape"/>
<feGaussianBlur stdDeviation="8.9" result="effect1_foregroundBlur_25_1550"/>
</filter>
<filter id="filter30_f_25_1550" x="145.919" y="622.095" width="39.4501" height="39.7511" filterUnits="userSpaceOnUse" color-interpolation-filters="sRGB">
<feFlood flood-opacity="0" result="BackgroundImageFix"/>
<feBlend mode="normal" in="SourceGraphic" in2="BackgroundImageFix" result="shape"/>
<feGaussianBlur stdDeviation="8.9" result="effect1_foregroundBlur_25_1550"/>
</filter>
<filter id="filter31_f_25_1550" x="1450.46" y="93.9526" width="38.4828" height="38.5003" filterUnits="userSpaceOnUse" color-interpolation-filters="sRGB">
<feFlood flood-opacity="0" result="BackgroundImageFix"/>
<feBlend mode="normal" in="SourceGraphic" in2="BackgroundImageFix" result="shape"/>
<feGaussianBlur stdDeviation="8.9" result="effect1_foregroundBlur_25_1550"/>
</filter>
<filter id="filter32_f_25_1550" x="118.277" y="895.242" width="38.3432" height="38.6874" filterUnits="userSpaceOnUse" color-interpolation-filters="sRGB">
<feFlood flood-opacity="0" result="BackgroundImageFix"/>
<feBlend mode="normal" in="SourceGraphic" in2="BackgroundImageFix" result="shape"/>
<feGaussianBlur stdDeviation="8.9" result="effect1_foregroundBlur_25_1550"/>
</filter>
<filter id="filter33_f_25_1550" x="175.197" y="538.276" width="38.3432" height="38.6874" filterUnits="userSpaceOnUse" color-interpolation-filters="sRGB">
<feFlood flood-opacity="0" result="BackgroundImageFix"/>
<feBlend mode="normal" in="SourceGraphic" in2="BackgroundImageFix" result="shape"/>
<feGaussianBlur stdDeviation="8.9" result="effect1_foregroundBlur_25_1550"/>
</filter>
<filter id="filter34_f_25_1550" x="552.702" y="419.035" width="40.4428" height="40.8111" filterUnits="userSpaceOnUse" color-interpolation-filters="sRGB">
<feFlood flood-opacity="0" result="BackgroundImageFix"/>
<feBlend mode="normal" in="SourceGraphic" in2="BackgroundImageFix" result="shape"/>
<feGaussianBlur stdDeviation="8.9" result="effect1_foregroundBlur_25_1550"/>
</filter>
<filter id="filter35_f_25_1550" x="227.07" y="843.243" width="40.4745" height="40.7045" filterUnits="userSpaceOnUse" color-interpolation-filters="sRGB">
<feFlood flood-opacity="0" result="BackgroundImageFix"/>
<feBlend mode="normal" in="SourceGraphic" in2="BackgroundImageFix" result="shape"/>
<feGaussianBlur stdDeviation="8.9" result="effect1_foregroundBlur_25_1550"/>
</filter>
<filter id="filter36_f_25_1550" x="303.408" y="431.629" width="37.9853" height="38.1939" filterUnits="userSpaceOnUse" color-interpolation-filters="sRGB">
<feFlood flood-opacity="0" result="BackgroundImageFix"/>
<feBlend mode="normal" in="SourceGraphic" in2="BackgroundImageFix" result="shape"/>
<feGaussianBlur stdDeviation="8.9" result="effect1_foregroundBlur_25_1550"/>
</filter>
<filter id="filter37_f_25_1550" x="422.075" y="717.792" width="40.4745" height="40.7045" filterUnits="userSpaceOnUse" color-interpolation-filters="sRGB">
<feFlood flood-opacity="0" result="BackgroundImageFix"/>
<feBlend mode="normal" in="SourceGraphic" in2="BackgroundImageFix" result="shape"/>
<feGaussianBlur stdDeviation="8.9" result="effect1_foregroundBlur_25_1550"/>
</filter>
<filter id="filter38_f_25_1550" x="253.15" y="338.824" width="39.059" height="39.3827" filterUnits="userSpaceOnUse" color-interpolation-filters="sRGB">
<feFlood flood-opacity="0" result="BackgroundImageFix"/>
<feBlend mode="normal" in="SourceGraphic" in2="BackgroundImageFix" result="shape"/>
<feGaussianBlur stdDeviation="8.9" result="effect1_foregroundBlur_25_1550"/>
</filter>
<filter id="filter39_f_25_1550" x="234.449" y="220.55" width="40.4745" height="40.7046" filterUnits="userSpaceOnUse" color-interpolation-filters="sRGB">
<feFlood flood-opacity="0" result="BackgroundImageFix"/>
<feBlend mode="normal" in="SourceGraphic" in2="BackgroundImageFix" result="shape"/>
<feGaussianBlur stdDeviation="8.9" result="effect1_foregroundBlur_25_1550"/>
</filter>
<filter id="filter40_f_25_1550" x="482.158" y="104.223" width="40.4745" height="40.7046" filterUnits="userSpaceOnUse" color-interpolation-filters="sRGB">
<feFlood flood-opacity="0" result="BackgroundImageFix"/>
<feBlend mode="normal" in="SourceGraphic" in2="BackgroundImageFix" result="shape"/>
<feGaussianBlur stdDeviation="8.9" result="effect1_foregroundBlur_25_1550"/>
</filter>
<filter id="filter41_f_25_1550" x="732.82" y="425.404" width="39.4013" height="39.5808" filterUnits="userSpaceOnUse" color-interpolation-filters="sRGB">
<feFlood flood-opacity="0" result="BackgroundImageFix"/>
<feBlend mode="normal" in="SourceGraphic" in2="BackgroundImageFix" result="shape"/>
<feGaussianBlur stdDeviation="8.9" result="effect1_foregroundBlur_25_1550"/>
</filter>
<filter id="filter42_f_25_1550" x="709.406" y="332.588" width="38.7245" height="39.1828" filterUnits="userSpaceOnUse" color-interpolation-filters="sRGB">
<feFlood flood-opacity="0" result="BackgroundImageFix"/>
<feBlend mode="normal" in="SourceGraphic" in2="BackgroundImageFix" result="shape"/>
<feGaussianBlur stdDeviation="8.9" result="effect1_foregroundBlur_25_1550"/>
</filter>
<filter id="filter43_f_25_1550" x="-867.34" y="252.063" width="2704.38" height="781.925" filterUnits="userSpaceOnUse" color-interpolation-filters="sRGB">
<feFlood flood-opacity="0" result="BackgroundImageFix"/>
<feBlend mode="normal" in="SourceGraphic" in2="BackgroundImageFix" result="shape"/>
<feGaussianBlur stdDeviation="12.65" result="effect1_foregroundBlur_25_1550"/>
</filter>
<filter id="filter44_f_25_1550" x="-110.38" y="463.605" width="1947.71" height="481.654" filterUnits="userSpaceOnUse" color-interpolation-filters="sRGB">
<feFlood flood-opacity="0" result="BackgroundImageFix"/>
<feBlend mode="normal" in="SourceGraphic" in2="BackgroundImageFix" result="shape"/>
<feGaussianBlur stdDeviation="7.9" result="effect1_foregroundBlur_25_1550"/>
</filter>
<linearGradient id="paint0_linear_25_1550" x1="486.377" y1="432.33" x2="408.044" y2="743.355" gradientUnits="userSpaceOnUse">
<stop stop-color="#9A95BB"/>
<stop offset="0.918685" stop-color="#292448"/>
</linearGradient>
<linearGradient id="paint1_linear_25_1550" x1="1365.62" y1="346.374" x2="1315.25" y2="546.357" gradientUnits="userSpaceOnUse">
<stop stop-color="#9A95BB"/>
<stop offset="0.918685" stop-color="#292448"/>
</linearGradient>
<clipPath id="clip0_25_1550">
<path d="M0 0H1512V982H0V0Z" fill="white"/>
</clipPath>
</defs>
</svg>
