<svg width="21" height="21" viewBox="0 0 21 21" fill="none" xmlns="http://www.w3.org/2000/svg">
<path d="M15.1167 11.7833L17.6167 9.28334C18.3757 8.49749 18.7957 7.44498 18.7862 6.3525C18.7767 5.26001 18.3385 4.21496 17.5659 3.44243C16.7934 2.66989 15.7483 2.23169 14.6559 2.22219C13.5634 2.2127 12.5109 2.63268 11.725 3.39167L10.2917 4.81667" stroke="#CCC8E7" stroke-width="1.66667" stroke-linecap="round" stroke-linejoin="round"/>
<path d="M5.88332 9.21667L3.38332 11.7167C2.62432 12.5025 2.20435 13.555 2.21384 14.6475C2.22334 15.74 2.66154 16.785 3.43407 17.5576C4.20661 18.3301 5.25166 18.7683 6.34414 18.7778C7.43663 18.7873 8.48914 18.3673 9.27498 17.6083L10.7 16.1833" stroke="#CCC8E7" stroke-width="1.66667" stroke-linecap="round" stroke-linejoin="round"/>
<path d="M17.1948 17.7757L3.80553 3.2245" stroke="#CCC8E7" stroke-width="1.66667" stroke-linecap="round" stroke-linejoin="round"/>
</svg>
