<svg width="73" height="71" viewBox="0 0 73 71" fill="none" xmlns="http://www.w3.org/2000/svg">
<g filter="url(#filter0_dg_105_717)">
<path d="M14 14C18.9459 14.5919 23.5813 16.8258 27.1396 20.3838C31.3286 24.5728 33.6826 30.2546 33.6826 36.1787C33.6826 41.191 31.9963 46.0286 28.9404 49.9365C30.4037 50.6457 31.9651 51.1458 33.5791 51.4121C33.8166 51.4513 34.0554 51.4865 34.2949 51.5156C34.8325 51.5809 35.3753 51.6202 35.9209 51.6338L36.3428 51.6387C38.5268 51.6386 40.6674 51.2167 42.6562 50.4199C42.8229 50.3531 42.9888 50.284 43.1533 50.2119C43.3793 50.1129 43.6027 50.0082 43.8242 49.8994C40.787 45.9981 39.1123 41.1749 39.1123 36.1787C39.1124 30.2547 41.4663 24.5737 45.6553 20.3848C47.8577 18.1824 50.4725 16.4875 53.3184 15.375V15.3682H53.3359C55.0485 14.7004 56.8447 14.2432 58.6846 14.0137L58.6836 19.4297C58.6824 19.4299 58.6808 19.4295 58.6797 19.4297V34.6631C58.6797 35.2239 58.658 35.7825 58.6162 36.3379C58.6129 36.3815 58.609 36.4251 58.6055 36.4687C58.5953 36.5935 58.5854 36.7183 58.5732 36.8428C58.5625 36.952 58.5494 37.061 58.5371 37.1699C58.5302 37.2314 58.5241 37.2931 58.5166 37.3545C58.5056 37.4448 58.4935 37.5349 58.4814 37.625C58.4664 37.7375 58.4503 37.8498 58.4336 37.9619C58.4176 38.0692 58.4004 38.1763 58.3828 38.2832C58.3755 38.3274 58.3698 38.3719 58.3623 38.416C58.3407 38.543 58.3168 38.6695 58.293 38.7959C58.2818 38.8555 58.2715 38.9152 58.2598 38.9746C58.2372 39.0892 58.2128 39.2033 58.1885 39.3174C58.1763 39.3743 58.1649 39.4314 58.1523 39.4883C58.1267 39.6042 58.0988 39.7195 58.0713 39.835C58.0629 39.8704 58.0555 39.906 58.0469 39.9414L58.0059 40.1074C57.9878 40.1793 57.968 40.2506 57.9492 40.3223C57.9255 40.4129 57.9018 40.5035 57.877 40.5937C57.8562 40.6692 57.8341 40.7442 57.8125 40.8193C57.7887 40.9023 57.766 40.9857 57.7412 41.0684C57.7202 41.1385 57.6984 41.2084 57.6768 41.2783C57.6449 41.3811 57.6124 41.4837 57.5791 41.5859C57.5534 41.6648 57.5276 41.7437 57.501 41.8223C57.4721 41.9077 57.443 41.9931 57.4131 42.0781C57.3824 42.1652 57.3511 42.2521 57.3193 42.3389C57.2889 42.4222 57.2571 42.505 57.2256 42.5879C57.1959 42.6661 57.1663 42.7444 57.1357 42.8223C57.1018 42.9087 57.0672 42.995 57.0322 43.0811C56.9953 43.1717 56.958 43.2623 56.9199 43.3525C56.8917 43.4194 56.8629 43.4861 56.834 43.5527C56.7932 43.6468 56.7511 43.7405 56.709 43.834C56.6696 43.9215 56.6294 44.0087 56.5889 44.0957C56.557 44.1641 56.5257 44.2327 56.4932 44.3008C56.4514 44.3881 56.4081 44.4748 56.3652 44.5615C56.3247 44.6436 56.2847 44.726 56.2432 44.8076C56.2128 44.8671 56.1813 44.9261 56.1504 44.9854C56.0999 45.0823 56.049 45.1792 55.9971 45.2754C55.9469 45.3683 55.8952 45.4605 55.8438 45.5527C55.8085 45.6159 55.7732 45.6793 55.7373 45.7422C55.6736 45.8537 55.6086 45.9647 55.543 46.0752C55.5227 46.1093 55.5029 46.1437 55.4824 46.1777C55.426 46.2716 55.3684 46.3649 55.3105 46.458C55.2705 46.5224 55.2311 46.5874 55.1904 46.6514C55.1243 46.7553 55.0561 46.8581 54.9883 46.9609C54.9676 46.9923 54.9476 47.0244 54.9268 47.0557L54.8604 47.1553C54.8111 47.2284 54.7602 47.3005 54.71 47.373C54.6675 47.4343 54.6251 47.4957 54.582 47.5566C54.5334 47.6255 54.4831 47.6934 54.4336 47.7617C54.14 48.1672 53.8324 48.5637 53.5107 48.9502C53.1949 49.3297 52.8667 49.7009 52.5244 50.0605L52.1377 50.458C47.9488 54.6468 42.2667 56.9999 36.3428 57L35.7881 56.9932C35.6053 56.9886 35.4224 56.9826 35.2402 56.9736C34.9327 56.9585 34.6259 56.935 34.3203 56.9072C34.2703 56.9027 34.2199 56.8994 34.1699 56.8945C34.094 56.8871 34.0181 56.8773 33.9424 56.8691C33.8294 56.8569 33.7162 56.845 33.6035 56.8311C33.5635 56.8261 33.5233 56.8206 33.4834 56.8154C33.3485 56.798 33.2135 56.7796 33.0791 56.7598C33.0074 56.7492 32.9358 56.7369 32.8643 56.7256C32.7588 56.709 32.653 56.6929 32.5479 56.6748C32.4834 56.6637 32.4188 56.6513 32.3545 56.6396C32.2385 56.6186 32.1224 56.5971 32.0068 56.5742C31.9313 56.5593 31.8557 56.5431 31.7803 56.5273C31.6911 56.5087 31.6016 56.4904 31.5127 56.4707C31.4228 56.4508 31.3328 56.4302 31.2432 56.4092C31.1487 56.387 31.0541 56.3642 30.96 56.3408C30.8831 56.3217 30.8061 56.3021 30.7295 56.2822C30.6405 56.2591 30.5515 56.2351 30.4629 56.2109C30.3703 56.1857 30.2778 56.1593 30.1855 56.1328C30.1042 56.1095 30.0224 56.0867 29.9414 56.0625C29.8615 56.0386 29.7818 56.0131 29.7021 55.9883C29.6103 55.9597 29.5182 55.9311 29.4268 55.9014C29.3482 55.8758 29.2696 55.8497 29.1914 55.8232C29.0863 55.7877 28.9814 55.7509 28.877 55.7139C28.8285 55.6967 28.7798 55.6796 28.7314 55.6621C28.6127 55.6191 28.4939 55.5753 28.376 55.5303C28.3199 55.5089 28.2639 55.4867 28.208 55.4648C28.1001 55.4226 27.992 55.3798 27.8848 55.3359C27.8226 55.3105 27.7602 55.2848 27.6982 55.2588C27.5968 55.2162 27.4953 55.173 27.3945 55.1289C27.3271 55.0994 27.2596 55.0692 27.1924 55.0391C27.1121 55.003 27.032 54.9657 26.9521 54.9287C26.8654 54.8885 26.7786 54.8479 26.6924 54.8066C26.6004 54.7626 26.5083 54.7182 26.417 54.6729C26.3604 54.6448 26.3035 54.6165 26.2471 54.5879C26.1359 54.5316 26.0253 54.4733 25.915 54.415C25.8636 54.3879 25.812 54.3606 25.7607 54.333C25.6582 54.2779 25.5558 54.2218 25.4541 54.165C25.3997 54.1347 25.3452 54.1041 25.291 54.0732C25.2021 54.0226 25.1136 53.9708 25.0254 53.9189C24.9505 53.8749 24.8752 53.831 24.8008 53.7861C24.7097 53.7312 24.6187 53.6754 24.5283 53.6191C24.4755 53.5862 24.4227 53.5529 24.3701 53.5195C24.2719 53.4572 24.1745 53.393 24.0771 53.3291C24.0351 53.3015 23.992 53.275 23.9502 53.2471L23.8369 53.1709C23.7744 53.1286 23.7125 53.0849 23.6504 53.042C23.5902 53.0004 23.5295 52.9592 23.4697 52.917C23.3679 52.8452 23.2667 52.7718 23.166 52.6982C23.1179 52.6631 23.0693 52.6283 23.0215 52.5928C22.9367 52.5298 22.8525 52.4656 22.7686 52.4014C22.7071 52.3543 22.645 52.3075 22.584 52.2598C22.2265 51.9802 21.8775 51.688 21.5361 51.3857C21.4674 51.3248 21.3982 51.264 21.3301 51.2021C21.0642 50.9608 20.8029 50.713 20.5479 50.458C19.1908 49.101 18.0283 47.5859 17.0742 45.958C16.9676 45.7761 16.8631 45.5929 16.7617 45.4082C16.706 45.3066 16.6498 45.205 16.5957 45.1025C15.2587 42.5735 14.4145 39.7983 14.1221 36.9258C14.0459 36.1773 14.0059 35.4222 14.0059 34.6631L14.0059 19.4121C14.004 19.4118 14.0018 19.4114 14 19.4111V14ZM19.3662 34.6631C19.3663 39.1653 21.1553 43.4834 24.3389 46.667C24.4044 46.7325 24.4715 46.7962 24.5381 46.8604C26.974 43.8519 28.3213 40.0852 28.3213 36.1787C28.3212 31.6765 26.5331 27.3584 23.3496 24.1748C22.1635 22.9887 20.8182 21.9992 19.3662 21.2207L19.3662 34.6631ZM53.3184 21.2793C51.9084 22.0486 50.6015 23.0187 49.4453 24.1748C46.2617 27.3584 44.4737 31.6765 44.4736 36.1787C44.4736 40.0588 45.8022 43.8015 48.207 46.7998C48.2529 46.755 48.3013 46.7124 48.3467 46.667C48.5395 46.4741 48.7267 46.2762 48.9092 46.0752C49.1248 45.8378 49.3332 45.5948 49.5342 45.3467C49.8575 44.9475 50.1629 44.5358 50.4473 44.1113C50.6444 43.817 50.8309 43.5162 51.0088 43.2109C51.8535 41.7615 52.4797 40.1939 52.8652 38.5596C52.912 38.3613 52.9545 38.162 52.9941 37.9619C53.0087 37.8884 53.0235 37.8149 53.0371 37.7412C53.0975 37.4139 53.1483 37.0844 53.1895 36.7529C53.1955 36.7038 53.2014 36.6547 53.207 36.6055C53.2809 35.9638 53.3183 35.3154 53.3184 34.6631V21.2793Z" fill="url(#paint0_linear_105_717)"/>
</g>
<defs>
<filter id="filter0_dg_105_717" x="0.1" y="0.1" width="72.4846" height="70.8" filterUnits="userSpaceOnUse" color-interpolation-filters="sRGB">
<feFlood flood-opacity="0" result="BackgroundImageFix"/>
<feColorMatrix in="SourceAlpha" type="matrix" values="0 0 0 0 0 0 0 0 0 0 0 0 0 0 0 0 0 0 127 0" result="hardAlpha"/>
<feOffset/>
<feGaussianBlur stdDeviation="6.95"/>
<feComposite in2="hardAlpha" operator="out"/>
<feColorMatrix type="matrix" values="0 0 0 0 0.927719 0 0 0 0 0.918218 0 0 0 0 0.983136 0 0 0 0.6 0"/>
<feBlend mode="normal" in2="BackgroundImageFix" result="effect1_dropShadow_105_717"/>
<feBlend mode="normal" in="SourceGraphic" in2="effect1_dropShadow_105_717" result="shape"/>
<feTurbulence type="fractalNoise" baseFrequency="25 25" numOctaves="3" seed="2311" />
<feDisplacementMap in="shape" scale="10.600000381469727" xChannelSelector="R" yChannelSelector="G" result="displacedImage" width="100%" height="100%" />
<feMerge result="effect2_texture_105_717">
<feMergeNode in="displacedImage"/>
</feMerge>
</filter>
<linearGradient id="paint0_linear_105_717" x1="36.3423" y1="64.788" x2="33.4241" y2="3.58955" gradientUnits="userSpaceOnUse">
<stop stop-color="#F6FDE0"/>
<stop offset="1" stop-color="#A191F3"/>
</linearGradient>
</defs>
</svg>
