<?xml version="1.0" encoding="UTF-8"?>
<svg id="Layer_1" xmlns="http://www.w3.org/2000/svg" version="1.1" viewBox="0 0 81.06 20.68">
  <!-- Generator: Adobe Illustrator 29.7.1, SVG Export Plug-In . SVG Version: 2.1.1 Build 8)  -->
  <defs>
    <style>
      .st0 {
        fill: #f6931d;
      }
    </style>
  </defs>
  <g>
    <path class="st0" d="M33.56,1.58c-2.46,0-4.45,1.99-4.45,4.45v4.45L20.2,1.58v13.36c0,2.46,1.99,4.45,4.45,4.45s4.45-1.99,4.45-4.45v-4.45l8.9,8.9V6.03c0-2.46-1.99-4.45-4.45-4.45Z"/>
    <path class="st0" d="M14.2,1.73H1.41v8.53h12.79c2.36,0,4.27-1.91,4.27-4.27h0c0-2.36-1.91-4.27-4.27-4.27Z"/>
    <path class="st0" d="M14.13,10.85H1.34v8.53h12.79c2.36,0,4.27-1.91,4.27-4.27s-1.91-4.27-4.27-4.27Z"/>
  </g>
  <g>
    <path d="M46.24,2.16c1.54,0,2.81.69,2.81,2.2,0,.67-.3,1.29-1.08,1.65,1.03.37,1.46,1.41,1.28,2.35-.24,1.31-1.33,1.9-2.95,1.9h-4.06V2.16h3.99ZM44.02,5.3h2.2c.71,0,1.05-.29,1.05-.76s-.35-.82-1.03-.82h-2.22v1.58ZM44.02,8.68h2.22c.81,0,1.19-.36,1.19-.93s-.42-.95-1.21-.95h-2.2v1.87Z"/>
    <path d="M52.16,3.02c0,1.25-1.9,1.25-1.9,0s1.9-1.25,1.9,0ZM50.38,4.53v5.72h1.67v-5.72h-1.67Z"/>
    <path d="M55.72,2.98v1.6h1.45v1.39h-1.46v2.15c0,.6.33.76.65.76.2,0,.51-.05.69-.14l.38,1.39c-.42.16-.75.23-1.2.25-1.24.06-2.17-.49-2.17-2.27v-2.15h-1.02v-1.39h1.02v-1.41l1.67-.18Z"/>
    <path d="M63.32,9.5c-.68.67-1.5.88-2.23.88-1.67,0-3.12-.91-3.12-2.97,0-1.92,1.45-3,3.11-3,.83,0,1.49.19,2.07.79l-.92,1.05c-.35-.27-.73-.33-1.08-.33-.83,0-1.5.54-1.5,1.49s.69,1.43,1.47,1.43c.37,0,.88-.15,1.16-.43l1.05,1.09Z"/>
    <path d="M63.68,7.41c0-1.72,1.23-3,3.12-3s3.13,1.27,3.13,3-1.19,2.97-3.13,2.97-3.12-1.25-3.12-2.97ZM68.25,7.41c0-.72-.44-1.5-1.45-1.5s-1.43.79-1.43,1.5.43,1.49,1.43,1.49,1.45-.74,1.45-1.49Z"/>
    <path d="M72.79,3.02c0,1.25-1.9,1.25-1.9,0s1.9-1.25,1.9,0ZM71.01,4.53v5.72h1.67v-5.72h-1.67Z"/>
    <path d="M78.21,10.25v-3.02c0-.88-.38-1.33-1.18-1.33-.78-.01-1.3.66-1.3,1.4v2.95h-1.64v-5.71h1.5l.06.73c.51-.66,1.16-.88,1.85-.87,1.28,0,2.38.6,2.38,2.82v3.03h-1.68Z"/>
    <path d="M47.88,17.05l-.12-2.54v-2.72h1.82v8.1h-1.55l-4.03-5.18.07,2.66v2.52h-1.83v-8.1h1.55l4.08,5.26Z"/>
    <path d="M55.47,14.17h1.56v5.71h-1.5l-.09-.72c-.38.6-1.2.83-1.76.84-1.71.01-2.95-1.1-2.95-2.98s1.31-3.01,3-2.98c.72,0,1.39.28,1.69.79l.06-.66ZM52.39,17.03c0,.95.67,1.5,1.5,1.5.94,0,1.52-.73,1.52-1.45,0-.82-.52-1.57-1.52-1.57-.83,0-1.5.57-1.5,1.51Z"/>
    <path d="M62.12,19.89v-3.07c0-.75-.3-1.25-.98-1.25s-1.03.61-1.03,1.26v3.05h-1.67v-5.71h1.46l.12.65c.36-.62,1.02-.77,1.5-.77.62,0,1.29.23,1.67,1.06.51-.77,1.05-1.08,1.9-1.08,1.19,0,2.28.6,2.28,2.73v3.12h-1.68v-3.09c0-.72-.2-1.19-.87-1.19s-1.05.57-1.05,1.21v3.07h-1.64Z"/>
    <path d="M70.05,17.57c.08.56.61,1.01,1.55,1.01.45,0,1.08-.1,1.48-.45l.94,1.04c-.61.6-1.6.84-2.45.84-2.07,0-3.2-1.21-3.2-3.04s1.17-2.95,3.03-2.95,3.21,1.21,2.86,3.55h-4.2ZM72.76,16.36c-.03-.62-.67-.91-1.36-.91s-1.18.35-1.34.91h2.71Z"/>
    <path d="M78.96,15.79c-.43-.3-.83-.42-1.35-.42s-.82.2-.82.47c0,.31.29.49.84.5,1.12.03,2.47.27,2.49,1.84.01.92-.68,1.92-2.5,1.92-.84,0-1.71-.16-2.68-.97l.72-1.18c.71.58,1.39.71,1.99.72.49.01.87-.18.86-.49,0-.27-.2-.49-.97-.51-1.06-.05-2.39-.49-2.39-1.83s1.23-1.84,2.46-1.84c.88,0,1.58.22,2.19.74l-.82,1.04Z"/>
  </g>
</svg>