<svg width="21" height="21" viewBox="0 0 21 21" fill="none" xmlns="http://www.w3.org/2000/svg">
<path d="M10.3423 20.7236C15.8651 20.7236 20.3423 16.2465 20.3423 10.7236C20.3423 5.20079 15.8651 0.723633 10.3423 0.723633C4.81944 0.723633 0.342285 5.20079 0.342285 10.7236C0.342285 16.2465 4.81944 20.7236 10.3423 20.7236Z" fill="#786DAF"/>
<path d="M14.8354 9.48613C15.0317 8.17613 14.0336 7.47176 12.6698 7.00176L13.1123 5.22676L12.0323 4.95801L11.6011 6.68613C11.3173 6.61488 11.0261 6.54863 10.7354 6.48238L11.1698 4.74301L10.0898 4.47363L9.6473 6.24801C9.4123 6.19426 9.18106 6.14176 8.95731 6.08551L8.95856 6.07988L7.46856 5.70801L7.18106 6.86176C7.18106 6.86176 7.98293 7.04551 7.96605 7.05676C8.40355 7.16613 8.48231 7.45551 8.46918 7.68551L7.96543 9.70738C7.99543 9.71488 8.03418 9.72613 8.07793 9.74301L7.96356 9.71488L7.25731 12.5474C7.20355 12.6799 7.06793 12.8793 6.76168 12.8036C6.77293 12.8193 5.97668 12.608 5.97668 12.608L5.44043 13.8443L6.84668 14.1949C7.10793 14.2605 7.36418 14.3293 7.61605 14.3936L7.16918 16.1886L8.24855 16.4574L8.69105 14.6824C8.98605 14.7618 9.27231 14.8355 9.55231 14.9055L9.11105 16.673L10.1911 16.9418L10.6379 15.1505C12.4804 15.4993 13.8654 15.3586 14.4486 13.6924C14.9186 12.3511 14.4254 11.5768 13.4561 11.0724C14.1623 10.9099 14.6936 10.4455 14.8354 9.48613ZM12.3667 12.9474C12.0336 14.2893 9.77418 13.5636 9.04168 13.3818L9.63543 11.0036C10.3679 11.1868 12.7161 11.5486 12.3667 12.9474ZM12.7011 9.46676C12.3967 10.6874 10.5167 10.0668 9.9073 9.91488L10.4448 7.75863C11.0542 7.91051 13.0186 8.19363 12.7011 9.46676Z" fill="white"/>
</svg>
