<svg width="25" height="25" viewBox="0 0 25 25" fill="none" xmlns="http://www.w3.org/2000/svg">
<path
        d="M19.6972 5.5H5.30272C4.30899 5.5 3.50342 6.39543 3.50342 7.5V17.5C3.50342 18.6046 4.30899 19.5 5.30272 19.5H19.6972C20.6909 19.5 21.4965 18.6046 21.4965 17.5V7.5C21.4965 6.39543 20.6909 5.5 19.6972 5.5Z"
        stroke="#867EB8" stroke-width="2" stroke-linecap="round" stroke-linejoin="round" />
<path
        d="M3.60747 15.202L9.80164 15.202C10.3321 15.202 10.8408 15.0597 11.2158 14.8063C11.5909 14.553 11.8016 14.2093 11.8016 13.851L11.8016 11.149C11.8016 10.7907 11.5909 10.447 11.2158 10.1937C10.8408 9.94031 10.3321 9.79797 9.80164 9.79797L3.50344 9.79797"
        stroke="#867EB8" stroke-width="2" stroke-linecap="round" stroke-linejoin="round" />
</svg>
